<svg width="87" height="100" viewBox="0 0 87 100" fill="none" xmlns="http://www.w3.org/2000/svg">
<g id="type05">
<path id="Vector" d="M20.225 27.0376H67.1M43.6625 3.6001V11.4126M59.2875 27.0376V41.1001C59.2875 49.7296 52.292 56.7251 43.6625 56.7251C35.033 56.7251 28.0375 49.7296 28.0375 41.1001V27.0376V23.1313C28.0375 16.6593 33.2842 11.4126 39.7562 11.4126H47.5687C54.0408 11.4126 59.2875 16.6593 59.2875 23.1313V27.0376Z" stroke="#0C5EB8" stroke-width="8" stroke-miterlimit="10" stroke-linecap="round" stroke-linejoin="round"/>
<path id="Vector_2" d="M35.85 95.7876H51.475" stroke="#1078D3" stroke-width="8" stroke-miterlimit="10" stroke-linecap="round" stroke-linejoin="round"/>
<path id="Vector_3" d="M67.0999 65.8712V95.7876H74.9124C79.2271 95.7876 82.7249 92.2897 82.7249 87.9751C82.7249 75.031 72.2316 64.5376 59.2874 64.5376H28.0374C15.0933 64.5376 4.59991 75.031 4.59991 87.9751C4.59991 92.2897 8.09777 95.7876 12.4124 95.7876H20.2249V65.8712" stroke="#0C5EB8" stroke-width="8" stroke-miterlimit="10" stroke-linecap="round" stroke-linejoin="round"/>
<path id="Vector_4" d="M51.475 64.5376V72.3501C51.475 76.6647 47.9771 80.1626 43.6625 80.1626C39.3478 80.1626 35.85 76.6647 35.85 72.3501V64.5376" stroke="#0C5EB8" stroke-width="8" stroke-miterlimit="10" stroke-linecap="round" stroke-linejoin="round"/>
</g>
</svg>
