<svg width="100" height="100" viewBox="0 0 100 100" fill="none" xmlns="http://www.w3.org/2000/svg">
<g id="type02">
<path id="Vector" d="M26.5626 74.2188H11.7189C7.40422 74.2188 3.90637 70.7209 3.90637 66.4062V11.7188C3.90637 7.4041 7.40422 3.90625 11.7189 3.90625H88.2814C92.596 3.90625 96.0939 7.4041 96.0939 11.7188V66.4062C96.0939 70.7209 92.596 74.2188 88.2814 74.2188H73.4376M65.6251 96.0938L50.0001 82.0312L34.3751 96.0938" stroke="#0C5EB8" stroke-width="8" stroke-miterlimit="10" stroke-linecap="round" stroke-linejoin="round"/>
<path id="Vector_2" d="M18.7501 27.3438C18.7501 23.0291 22.248 19.5312 26.5626 19.5312M26.5626 58.5938C22.248 58.5938 18.7501 55.0959 18.7501 50.7812M81.2501 50.7812C81.2501 55.0959 77.7523 58.5938 73.4376 58.5938M73.4376 19.5312C77.7523 19.5312 81.2501 23.0291 81.2501 27.3438" stroke="#0C5EB8" stroke-width="8" stroke-miterlimit="10" stroke-linecap="round" stroke-linejoin="round"/>
<path id="Vector_3" d="M50.0001 82.0312C54.3148 82.0312 57.8126 78.5335 57.8126 74.2188C57.8126 69.904 54.3148 66.4062 50.0001 66.4062C45.6854 66.4062 42.1876 69.904 42.1876 74.2188C42.1876 78.5335 45.6854 82.0312 50.0001 82.0312Z" stroke="#0C5EB8" stroke-width="8" stroke-miterlimit="10" stroke-linecap="round" stroke-linejoin="round"/>
<path id="Vector_4" d="M42.1876 50.7812H57.8126M34.3751 35.1562H65.6251" stroke="#1078D3" stroke-width="8" stroke-miterlimit="10" stroke-linecap="round" stroke-linejoin="round"/>
</g>
</svg>
