<svg width="100" height="100" viewBox="0 0 100 100" fill="none" xmlns="http://www.w3.org/2000/svg">
<g clip-path="url(#clip0_528_1776)">
<path d="M27.3438 49.2188H11.7188C7.40413 49.2188 3.90628 52.7166 3.90628 57.0312V88.2812C3.90628 92.5959 7.40413 96.0938 11.7188 96.0938H88.2813C92.5959 96.0938 96.0938 92.5959 96.0938 88.2812V57.0312C96.0938 52.7166 92.5959 49.2188 88.2813 49.2188L79.6916 36.7234C78.2666 34.8232 75.9955 33.5938 73.4375 33.5938C69.1229 33.5938 65.625 37.0916 65.625 41.4062V49.2188L57.0354 36.7234C55.6104 34.8232 53.3393 33.5938 50.7813 33.5938C46.4666 33.5938 42.9688 37.0916 42.9688 41.4062V49.2188" stroke="#0C5EB8" stroke-width="8" stroke-miterlimit="10" stroke-linecap="round" stroke-linejoin="round"/>
<path d="M11.7188 49.2188V19.5312C11.7188 15.2166 15.2166 11.7188 19.5313 11.7188C23.8459 11.7188 27.3438 15.2166 27.3438 19.5312V49.2188" stroke="#0C5EB8" stroke-width="8" stroke-miterlimit="10" stroke-linecap="round" stroke-linejoin="round"/>
<path d="M80.4688 64.8438H65.625M50 64.8438H35.1563M50 80.4688H35.1563M80.4688 80.4688H65.625" stroke="#1078D3" stroke-width="8" stroke-miterlimit="10" stroke-linecap="round" stroke-linejoin="round"/>
<path d="M19.5313 80.4688V96.0938M42.1875 11.7188C53.9063 11.7188 53.9063 3.90625 65.625 3.90625" stroke="#0C5EB8" stroke-width="8" stroke-miterlimit="10" stroke-linecap="round" stroke-linejoin="round"/>
</g>
<defs>
<clipPath id="clip0_528_1776">
<rect width="100" height="100" fill="white"/>
</clipPath>
</defs>
</svg>
