<svg width="100" height="96" viewBox="0 0 100 96" fill="none" xmlns="http://www.w3.org/2000/svg">
<g id="type03">
<path id="Vector" d="M72.7234 90.872L80.4791 83.0111M94.7136 90.7236C95.5692 88.2644 96.114 85.6585 96.0955 82.9057C96.0082 69.9685 85.4501 59.5517 72.513 59.639C59.5758 59.7262 49.159 70.2844 49.2463 83.2215C49.2648 85.9742 49.8448 88.5726 50.7334 91.0201" stroke="#1078D3" stroke-width="7.9958" stroke-miterlimit="10" stroke-linecap="round" stroke-linejoin="round"/>
<path id="Vector_2" d="M41.62 51.8304C45.9325 51.8304 49.4284 48.3345 49.4284 44.022C49.4284 39.7096 45.9325 36.2136 41.62 36.2136C37.3076 36.2136 33.8116 39.7096 33.8116 44.022C33.8116 48.3345 37.3076 51.8304 41.62 51.8304Z" stroke="#0C5EB8" stroke-width="7.9958" stroke-miterlimit="10" stroke-linecap="round" stroke-linejoin="round"/>
<path id="Vector_3" d="M72.8536 44.022C72.8536 41.1284 72.4601 38.3267 71.7237 35.6674C72.5546 35.1784 79.3358 31.2632 79.3358 31.2632L71.5274 17.7387L63.8833 22.1518C59.9787 18.1766 54.9907 15.3333 49.4284 13.8925V4.97998H33.8116V13.8927C28.2493 15.3333 23.2615 18.1768 19.3567 22.152L11.7127 17.7387L3.9043 31.2632L11.6407 35.7298C10.9057 38.3868 10.3862 41.1309 10.3862 44.022C10.3862 46.913 10.9057 49.6571 11.6407 52.3141L3.9043 56.7807L11.7127 70.3052L19.3567 65.8921C23.2613 69.8674 28.2493 72.7106 33.8116 74.1514V83.0641" stroke="#0C5EB8" stroke-width="7.9958" stroke-miterlimit="10" stroke-linecap="round" stroke-linejoin="round"/>
</g>
</svg>
