<svg width="28" height="28" viewBox="0 0 28 28" fill="none" xmlns="http://www.w3.org/2000/svg">
<g id="Group">
<path id="Vector" d="M6.38082 28C4.67837 28 3.0778 27.3987 1.87403 26.3069C-0.611005 24.053 -0.611005 20.3857 1.87403 18.1318L16.1744 5.16168C17.8617 3.63131 20.6073 3.63131 22.2945 5.16168C23.9818 6.69204 23.9818 9.18218 22.2945 10.7125L11.7758 20.2528C11.3579 20.6319 10.6802 20.6319 10.2622 20.2528C9.84423 19.8737 9.84423 19.2591 10.2622 18.88L20.7809 9.3397C21.6337 8.5663 21.6337 7.30786 20.7809 6.53446C20.3678 6.15977 19.8186 5.95346 19.2345 5.95346C18.6503 5.95346 18.101 6.15977 17.688 6.53446L3.38761 19.5046C1.73718 21.0015 1.73718 23.4372 3.38761 24.9341C4.18718 25.6592 5.25018 26.0586 6.38082 26.0586C7.51145 26.0586 8.57452 25.6592 9.37402 24.9341L24.01 11.6596C25.196 10.584 25.849 9.1539 25.849 7.63273C25.849 6.11155 25.196 4.6815 24.01 3.60588C21.5618 1.3854 17.5784 1.38547 15.1302 3.60588L4.27587 13.4505C3.85796 13.8296 3.18027 13.8296 2.76229 13.4505C2.34431 13.0714 2.34431 12.4568 2.76229 12.0777L13.6167 2.23303C16.8994 -0.744344 22.2409 -0.744344 25.5236 2.23303C27.1139 3.67532 27.9897 5.593 27.9897 7.63273C27.9897 9.67246 27.1139 11.5901 25.5236 13.0324L10.8876 26.3069C9.68383 27.3987 8.08327 28 6.38082 28Z" fill="white"/>
</g>
</svg>
