<svg width="21" height="20" viewBox="0 0 21 20" fill="none" xmlns="http://www.w3.org/2000/svg">
<g id="Frame 99">
<path id="Vector" d="M16.7215 19.2799C17.6897 19.1361 19.6261 17.9855 20.041 16.8349C20.456 15.6842 20.456 14.6775 20.3177 14.246C20.1794 14.1022 19.9027 13.9583 19.3495 13.6707C18.9345 13.383 16.4449 12.0886 16.0299 11.9447C15.615 11.8009 15.2 11.6571 14.9234 12.2324C14.6468 12.8077 13.6786 13.9583 13.4019 14.246C13.1253 14.5336 12.8487 14.6775 12.2954 14.3898C11.7422 14.1022 10.2207 13.5268 8.28431 11.8009C6.76285 10.3626 5.79465 8.78055 5.51802 8.20524C5.24139 7.77376 5.51802 7.48611 5.79465 7.19845C5.93296 7.05463 6.20959 6.62315 6.48622 6.33549C6.76285 6.04784 6.90116 5.76019 7.03948 5.47253C7.17779 5.18488 7.17779 4.89722 7.03948 4.60957C6.90116 4.46574 5.93297 1.87685 5.51802 0.870066C5.10308 -0.136724 4.68813 0.00710245 4.4115 0.00710245H3.44331C3.02836 0.00710245 2.4751 0.00710212 2.06016 0.58241C1.64522 1.15772 0.400391 2.30833 0.400391 4.89722C0.400391 7.48611 2.19848 9.93117 2.47511 10.2188C2.75174 10.6503 5.93297 15.8281 10.9123 17.9855C12.0188 18.5608 12.987 18.8484 13.6786 19.1361C14.7851 19.4237 15.8916 19.4237 16.7215 19.2799Z" fill="url(#paint0_linear_364_3800)"/>
</g>
<defs>
<linearGradient id="paint0_linear_364_3800" x1="-4.06396" y1="32.2195" x2="27.3893" y2="15.3533" gradientUnits="userSpaceOnUse">
<stop stop-color="#031367"/>
<stop offset="1" stop-color="#1494F1"/>
</linearGradient>
</defs>
</svg>
