<svg width="20" height="20" viewBox="0 0 20 20" fill="none" xmlns="http://www.w3.org/2000/svg">
<g id="phone" clip-path="url(#clip0_552_133)">
<path id="Vector" d="M19.0909 14.4729V17.2002C19.0919 17.4534 19.0401 17.704 18.9386 17.9359C18.8372 18.1679 18.6885 18.3762 18.5019 18.5473C18.3153 18.7185 18.0951 18.8488 17.8552 18.9299C17.6154 19.011 17.3612 19.0411 17.1091 19.0184C14.3117 18.7144 11.6245 17.7585 9.26364 16.2275C7.06712 14.8317 5.20485 12.9694 3.80909 10.7729C2.27271 8.40127 1.31658 5.70108 1.01818 2.89109C0.995464 2.63969 1.02534 2.38632 1.10591 2.14711C1.18648 1.90789 1.31597 1.68808 1.48615 1.50165C1.65633 1.31523 1.86346 1.16628 2.09436 1.06429C2.32525 0.962299 2.57486 0.909506 2.82727 0.909268H5.55455C5.99573 0.904926 6.42345 1.06116 6.75797 1.34884C7.09248 1.63653 7.31098 2.03604 7.37273 2.4729C7.48784 3.34569 7.70132 4.20266 8.00909 5.02745C8.1314 5.35284 8.15787 5.70646 8.08537 6.04643C8.01286 6.3864 7.84442 6.69846 7.6 6.94563L6.44545 8.10018C7.7396 10.3761 9.62405 12.2606 11.9 13.5547L13.0545 12.4002C13.3017 12.1558 13.6138 11.9873 13.9537 11.9148C14.2937 11.8423 14.6473 11.8688 14.9727 11.9911C15.7975 12.2989 16.6545 12.5123 17.5273 12.6275C17.9689 12.6898 18.3722 12.9122 18.6605 13.2524C18.9488 13.5927 19.102 14.0271 19.0909 14.4729Z" stroke="white" stroke-width="1.5" stroke-linecap="round" stroke-linejoin="round"/>
</g>
<defs>
<clipPath id="clip0_552_133">
<rect width="20" height="20" fill="white"/>
</clipPath>
</defs>
</svg>
