<svg width="161" height="40" viewBox="0 0 161 40" fill="none" xmlns="http://www.w3.org/2000/svg">
<g id="logo" clip-path="url(#clip0_71_1904)">
<g id="&#208;&#161;">
<path id="Vector" d="M146.292 2.08338L132.014 18.9783C131.813 19.2165 131.516 19.354 131.203 19.354H119.604C118.703 19.354 118.213 18.3085 118.793 17.6239L133.1 0.728906C133.301 0.491213 133.598 0.354004 133.911 0.354004H145.481C146.381 0.354004 146.871 1.39855 146.292 2.08338Z" fill="white" stroke="white" stroke-width="0.113078"/>
<path id="Vector_2" d="M146.25 37.556L131.934 20.6611C131.731 20.4216 131.431 20.2832 131.114 20.2832H119.571C118.66 20.2832 118.167 21.3334 118.757 22.0171L133.319 38.9121C133.522 39.1475 133.82 39.2832 134.133 39.2832H145.43C146.336 39.2832 146.831 38.2412 146.25 37.556Z" fill="white" stroke="white" stroke-width="0.113078"/>
<path id="Vector_3" d="M159.092 0.467285H148.185C147.607 0.467285 147.138 0.924039 147.138 1.48747V7.4471C147.138 8.01053 147.607 8.46729 148.185 8.46729H159.092C159.67 8.46729 160.138 8.01053 160.138 7.4471V1.48747C160.138 0.924039 159.67 0.467285 159.092 0.467285Z" fill="white" stroke="white" stroke-width="0.113078"/>
<path id="Vector_4" d="M159.092 31.2671H148.185C147.607 31.2671 147.138 31.7238 147.138 32.2873V38.2469C147.138 38.8103 147.607 39.2671 148.185 39.2671H159.092C159.67 39.2671 160.138 38.8103 160.138 38.2469V32.2873C160.138 31.7238 159.67 31.2671 159.092 31.2671Z" fill="white" stroke="white" stroke-width="0.113078"/>
</g>
<g id="&#208;&#154;">
<path id="Vector_5" d="M121.732 2.07995L107.589 18.9746C107.387 19.2163 107.086 19.3555 106.77 19.354L95.0351 19.2981C94.1343 19.2939 93.6499 18.2449 94.2341 17.5631L108.657 0.724302C108.858 0.489348 109.153 0.354004 109.464 0.354004H120.918C121.816 0.354004 122.306 1.39415 121.732 2.07995Z" fill="white" stroke="white" stroke-width="0.113078"/>
<path id="Vector_6" d="M121.809 37.6154L107.703 20.7205C107.502 20.4794 107.202 20.3398 106.887 20.3398H95.1171C94.2119 20.3398 93.7234 21.3942 94.3123 22.077L108.88 38.972C109.082 39.2058 109.376 39.3398 109.685 39.3398H120.993C121.891 39.3398 122.382 38.3012 121.809 37.6154Z" fill="white" stroke="white" stroke-width="0.113078"/>
<path id="Vector_7" d="M85.369 1.71427V38.5787C85.369 39.1684 85.8576 39.6465 86.4603 39.6465H92.7777C93.3804 39.6465 93.869 39.1684 93.869 38.5787V1.71427C93.869 1.12454 93.3804 0.646484 92.7777 0.646484H86.4603C85.8576 0.646484 85.369 1.12454 85.369 1.71427Z" fill="white" stroke="white" stroke-width="0.113078"/>
</g>
<g id="&#208;&#148;">
<path id="Vector_8" d="M54.769 2.20439L69.1151 19.0932C69.3166 19.3305 69.6125 19.4673 69.9251 19.4673H81.4532C82.3587 19.4673 82.8477 18.411 82.2599 17.7259L67.7575 0.837117C67.5559 0.602396 67.2612 0.467285 66.9514 0.467285H55.579C54.6758 0.467285 54.1856 1.51822 54.769 2.20439Z" fill="white" stroke="white" stroke-width="0.113078"/>
<path id="Vector_9" d="M54.7632 37.9903L69.1057 20.7223C69.3077 20.4797 69.6039 20.3398 69.9163 20.3398H81.4493C82.3525 20.3398 82.8418 21.4123 82.2582 22.1113L67.8315 39.3797C67.6301 39.6208 67.3344 39.7596 67.0225 39.7596H55.5738C54.6723 39.7596 54.1819 38.6901 54.7632 37.9903Z" fill="white" stroke="white" stroke-width="0.113078"/>
<path id="Vector_10" d="M45.8503 1.82756V38.692C45.8503 39.2817 46.3389 39.7598 46.9416 39.7598H53.259C53.8617 39.7598 54.3503 39.2817 54.3503 38.692V1.82756C54.3503 1.23783 53.8617 0.759766 53.259 0.759766H46.9416C46.3389 0.759766 45.8503 1.23783 45.8503 1.82756Z" fill="white" stroke="white" stroke-width="0.113078"/>
</g>
<g id="Group">
<path id="Vector_11" d="M13.5992 14.4288C7.13926 22.2671 1.67028 28.9121 1.43169 29.2059C1.26105 29.4211 1.41431 29.7382 1.68902 29.7382H2.36769H3.53915C3.65731 29.7382 3.76935 29.6855 3.8446 29.5944L15.7281 15.2181C22.3349 7.21468 27.8039 0.569588 27.8772 0.441067C27.9874 0.239171 27.7671 0.184082 26.6844 0.184082L25.5281 0.199935C25.4117 0.20152 25.302 0.254174 25.2279 0.343912L13.5992 14.4288Z" fill="white"/>
<path id="Vector_12" d="M24.8078 14.5389C18.2386 22.4323 12.7336 29.0774 12.5501 29.316C12.4159 29.4875 12.5381 29.7382 12.7558 29.7382H13.5593H14.7318C14.8493 29.7382 14.9607 29.686 15.036 29.5958L27.1566 15.0713C33.891 6.99438 39.396 0.349291 39.396 0.294203C39.396 0.239171 38.7905 0.184082 38.0564 0.184082H36.9031C36.7851 0.184082 36.6733 0.236623 36.598 0.32738L24.8078 14.5389Z" fill="white"/>
<path id="Vector_13" d="M27.882 15.8058L15.8222 30.2416C15.7627 30.3129 15.73 30.4029 15.73 30.4957V34.5525C15.73 36.834 15.7914 38.4096 15.8719 38.6061C15.8808 38.6276 15.889 38.6316 15.9055 38.6157C16.5054 38.0252 39.761 10.1714 39.9791 9.80766C40.0524 9.67926 40.089 7.69823 40.0707 5.40535L40.0299 2.33127C40.025 1.96331 39.565 1.80009 39.3293 2.08266L27.882 15.8058Z" fill="white"/>
<path id="Vector_14" d="M4.84292 6.88871L0.702736 11.955C0.644874 12.0258 0.613281 12.1144 0.613281 12.2058V15.2397C0.613281 16.9833 0.649912 18.4149 0.704831 18.4149C0.741462 18.4149 2.68235 16.084 5.00773 13.2391L9.13019 8.17261C9.18765 8.1019 9.21907 8.01358 9.21907 7.92248V4.88809C9.21907 3.14451 9.18244 1.71289 9.14581 1.71289C9.10924 1.71289 7.16835 4.04381 4.84292 6.88871Z" fill="white"/>
<path id="Vector_15" d="M12.8443 6.88908L8.68653 12.0107C8.62822 12.0826 8.59685 12.1725 8.59793 12.265L8.63292 15.3533L8.66932 17.4952C8.67561 17.8652 9.14071 18.0254 9.37358 17.7378L12.9541 13.3153L17.1123 8.17519C17.1703 8.1034 17.2015 8.01366 17.2004 7.92138L17.1654 4.85104L17.1292 2.73984C17.1228 2.37053 16.6592 2.20991 16.4257 2.49622L12.8443 6.88908Z" fill="white"/>
<path id="Vector_16" d="M16.5531 15.8005C12.7187 20.464 8.37063 25.7519 6.8846 27.5512L4.2882 30.6763C4.21289 30.767 4.10119 30.8194 3.98331 30.8194H2.33468H0.89638C0.677499 30.8194 0.500061 30.9968 0.500061 31.2157V35.3178V39.4197C0.500061 39.6389 0.677499 39.8161 0.89638 39.8161H7.56338H14.2304C14.4493 39.8161 14.6268 39.6389 14.6268 39.4197V37.2825V35.4186C14.6268 35.2295 14.3793 35.1576 14.2782 35.3178C12.9756 37.4659 8.66418 37.2638 7.76522 35.0056C7.47166 34.3079 7.60007 33.445 8.04038 32.8941C8.444 32.4168 9.69156 31.8843 10.6639 31.7925C12.0032 31.664 13.104 32.0128 13.9296 32.839L13.9501 32.8596C14.1997 33.1094 14.6268 32.9326 14.6268 32.5794V32.1781V31.2157C14.6268 30.9968 14.4493 30.8194 14.2304 30.8194H12.8104C11.4528 30.8194 10.9391 30.746 10.774 30.544C10.6639 30.3971 10.5905 30.2135 10.6272 30.1034C10.6456 30.0115 14.3149 25.5499 18.7546 20.1886C23.1944 14.8273 26.8454 10.3657 26.8821 10.2739C26.9188 10.1638 26.295 10.072 25.4143 10.0352L24.2582 9.99342C24.0513 9.98595 23.8851 9.82046 23.8766 9.61364L23.8366 8.63982C23.7999 7.92379 23.7265 7.31787 23.6531 7.31787C23.5797 7.31787 20.3875 11.1369 16.5531 15.8005Z" fill="white"/>
<path id="Vector_17" d="M4.55215 15.2883C2.79996 17.4375 1.28755 19.3112 1.19532 19.4213C1.06624 19.6051 1.69333 19.6602 4.27546 19.6602H7.12528C7.34416 19.6602 7.5216 19.4827 7.5216 19.2638V15.7475C7.5216 12.9555 7.57697 11.7798 7.74297 11.6145C7.87206 11.4859 7.76352 11.4507 7.70821 11.4507C7.65289 11.4507 6.30433 13.1575 4.55215 15.2883Z" fill="white"/>
<path id="Vector_18" d="M9.53881 33.1284C7.65862 33.9563 8.79039 35.7961 11.1817 35.7961C12.5326 35.7961 13.4088 35.226 13.4088 34.3243C13.4088 33.8091 13.2992 33.6068 12.7881 33.2755C12.0579 32.7788 10.4881 32.7052 9.53881 33.1284Z" fill="white"/>
<path id="Vector_19" d="M37.0663 28.7635L34.1651 32.2647C34.1062 32.3358 34.074 32.4252 34.074 32.5175V35.546C34.074 37.2876 34.1474 38.6803 34.2208 38.6254C34.3126 38.5705 35.6711 36.9575 37.2682 35.051L40.0402 31.6798C40.0995 31.6077 40.1314 31.5169 40.1304 31.4236L40.0953 28.3602L40.0587 26.2277C40.0523 25.8592 39.5907 25.6981 39.3565 25.9825L37.0663 28.7635Z" fill="white"/>
<path id="Vector_20" d="M28.7895 28.8999L25.8998 32.3673C25.8404 32.4385 25.8079 32.5283 25.8079 32.621V36.1469V39.4199C25.8079 39.639 25.9853 39.8162 26.2042 39.8162H29.3748H32.5453C32.7642 39.8162 32.9416 39.639 32.9416 39.4199V36.0551V32.6903C32.9416 32.4714 32.7642 32.294 32.5453 32.294H32.4843C32.2986 32.294 32.1321 32.2844 32.0477 32.2651C32.0062 32.2556 31.9862 32.2187 31.983 32.1763C31.9598 31.8663 31.9112 30.447 31.8624 28.7531L31.7861 26.3687C31.7745 26.0039 31.3176 25.8475 31.0848 26.1286L28.7895 28.8999Z" fill="white"/>
</g>
</g>
<defs>
<clipPath id="clip0_71_1904">
<rect width="160" height="39.6319" fill="white" transform="translate(0.500061 0.184082)"/>
</clipPath>
</defs>
</svg>
