<svg width="68" height="102" viewBox="0 0 68 102" fill="none" xmlns="http://www.w3.org/2000/svg">
<g id="metka">
<path id="Vector" d="M67 41C67 71 34 101 34 101C34 101 1 71 1 41C1 30.3913 4.47678 20.2172 10.6655 12.7157C16.8542 5.21427 25.2479 1 34 1C42.7521 1 51.1458 5.21427 57.3345 12.7157C63.5232 20.2172 67 30.3913 67 41Z" fill="url(#paint0_linear_245_4711)" stroke="white" stroke-width="2" stroke-linecap="round" stroke-linejoin="round"/>
<path id="Vector_2" d="M34 56C40.8345 56 46.375 49.2843 46.375 41C46.375 32.7157 40.8345 26 34 26C27.1655 26 21.625 32.7157 21.625 41C21.625 49.2843 27.1655 56 34 56Z" fill="white" stroke="white" stroke-width="2" stroke-linecap="round" stroke-linejoin="round"/>
</g>
<defs>
<linearGradient id="paint0_linear_245_4711" x1="-13.7324" y1="167.299" x2="105.853" y2="126.3" gradientUnits="userSpaceOnUse">
<stop stop-color="#031367"/>
<stop offset="1" stop-color="#1494F1"/>
</linearGradient>
</defs>
</svg>
