<?xml version="1.0" encoding="utf-8"?><svg viewBox="0 0 502.66 502.66" xmlns="http://www.w3.org/2000/svg" xmlns:xlink="http://www.w3.org/1999/xlink"><style>:root>svg{display:none}:root>svg:target{display:block}</style><svg viewBox="0 0 100 100" id="about-1" xmlns="http://www.w3.org/2000/svg"><g clip-path="url(#aa)" stroke-width="8" stroke-miterlimit="10" stroke-linecap="round" stroke-linejoin="round"><path d="M27.344 49.219H11.719a7.813 7.813 0 00-7.813 7.812v31.25a7.813 7.813 0 007.813 7.813H88.28a7.813 7.813 0 007.813-7.813v-31.25a7.813 7.813 0 00-7.813-7.812l-8.59-12.496a7.813 7.813 0 00-14.067 4.683v7.813l-8.589-12.496a7.813 7.813 0 00-14.067 4.683v7.813"/><path d="M11.719 49.219V19.53a7.813 7.813 0 0115.625 0v29.69M80.469 64.844H65.625m-15.625 0H35.156M50 80.469H35.156m45.313 0H65.625M19.531 80.469v15.625m22.657-84.375c11.718 0 11.718-7.813 23.437-7.813"/></g><defs><clipPath id="aa"><path d="M0 0h100v100H0z"/></clipPath></defs></svg><svg viewBox="0 0 100 100" id="about-2" xmlns="http://www.w3.org/2000/svg"><g clip-path="url(#ba)" stroke-width="8" stroke-miterlimit="10" stroke-linecap="round" stroke-linejoin="round"><path d="M46.875 74.219c15.102 0 27.344-12.242 27.344-27.344S61.977 19.531 46.875 19.531 19.531 31.773 19.531 46.875s12.242 27.344 27.344 27.344z"/><path d="M46.875 89.844c-23.731 0-42.969-19.238-42.969-42.969S23.144 3.906 46.875 3.906s42.969 19.238 42.969 42.969M72.656 89.844H46.875m41.406-6.25l7.813 6.25-7.813 6.25"/><path d="M46.875 35.156v11.719h11.719"/></g><defs><clipPath id="ba"><path d="M0 0h100v100H0z"/></clipPath></defs></svg><svg viewBox="0 0 100 100" id="about-3" xmlns="http://www.w3.org/2000/svg"><g stroke-width="8" stroke-miterlimit="10" stroke-linecap="round" stroke-linejoin="round"><path d="M26.563 74.219H11.719a7.813 7.813 0 01-7.813-7.813V11.72a7.813 7.813 0 017.813-7.813H88.28a7.813 7.813 0 017.813 7.813v54.687a7.813 7.813 0 01-7.813 7.813H73.438m-7.813 21.875L50 82.03 34.375 96.094"/><path d="M18.75 27.344a7.813 7.813 0 017.813-7.813m0 39.063a7.813 7.813 0 01-7.813-7.813m62.5 0a7.813 7.813 0 01-7.812 7.813m0-39.063a7.813 7.813 0 017.812 7.813M50 82.031a7.812 7.812 0 100-15.625 7.812 7.812 0 000 15.625zM42.188 50.781h15.625M34.375 35.156h31.25"/></g></svg><svg viewBox="0 0 87 100" id="about-4" xmlns="http://www.w3.org/2000/svg"><g stroke-width="8" stroke-miterlimit="10" stroke-linecap="round" stroke-linejoin="round"><path d="M20.225 27.038H67.1M43.663 3.6v7.813m15.625 15.625V41.1c0 8.63-6.996 15.625-15.625 15.625-8.63 0-15.625-6.995-15.625-15.625V23.131c0-6.472 5.246-11.718 11.718-11.718h7.813c6.472 0 11.718 5.246 11.718 11.718v3.907zM35.85 95.788h15.625M67.1 65.871v29.917h7.812a7.813 7.813 0 007.813-7.813c0-12.944-10.493-23.437-23.438-23.437h-31.25C15.093 64.538 4.6 75.03 4.6 87.975a7.813 7.813 0 007.812 7.813h7.813V65.87"/><path d="M51.475 64.538v7.812a7.813 7.813 0 01-15.625 0v-7.812"/></g></svg><svg viewBox="0 0 100 96" id="about-5" xmlns="http://www.w3.org/2000/svg"><g stroke-width="7.996" stroke-miterlimit="10" stroke-linecap="round" stroke-linejoin="round"><path d="M72.723 90.872l7.756-7.86m14.235 7.712c.855-2.46 1.4-5.066 1.382-7.818-.088-12.938-10.646-23.354-23.583-23.267-12.937.087-23.354 10.645-23.267 23.583.019 2.752.599 5.35 1.487 7.798M41.62 51.83a7.808 7.808 0 100-15.616 7.808 7.808 0 000 15.616z"/><path d="M72.854 44.022c0-2.894-.394-5.695-1.13-8.355.83-.489 7.612-4.404 7.612-4.404L71.527 17.74l-7.644 4.413c-3.904-3.975-8.892-6.819-14.455-8.26V4.98H33.812v8.913c-5.563 1.44-10.55 4.284-14.455 8.259l-7.644-4.413-7.809 13.524 7.737 4.467c-.735 2.657-1.255 5.4-1.255 8.292 0 2.891.52 5.635 1.255 8.292l-7.737 4.467 7.809 13.524 7.644-4.413c3.904 3.975 8.892 6.819 14.455 8.26v8.912"/></g></svg><svg viewBox="0 0 24 24" id="arr-left" xmlns="http://www.w3.org/2000/svg"><path d="M22 13.5a1.5 1.5 0 000-3v3zM.94 10.94a1.5 1.5 0 000 2.12l9.545 9.547a1.5 1.5 0 102.122-2.122L4.12 12l8.486-8.485a1.5 1.5 0 10-2.122-2.122L.94 10.94zM22 10.5H2v3h20v-3z"/></svg><svg viewBox="0 0 24 24" id="arr-right" xmlns="http://www.w3.org/2000/svg"><path d="M2 10.5a1.5 1.5 0 000 3v-3zm21.06 2.56a1.5 1.5 0 000-2.12l-9.545-9.547a1.5 1.5 0 10-2.122 2.122L19.88 12l-8.486 8.485a1.5 1.5 0 102.122 2.122l9.546-9.546zM2 13.5h20v-3H2v3z"/></svg><svg viewBox="0 0 20 19" id="catalog" xmlns="http://www.w3.org/2000/svg"><g clip-path="url(#ha)" stroke-width="3" stroke-linecap="round" stroke-linejoin="round"><path d="M1.818 2.375h16.364M1.818 9.5h16.364M1.818 16.625h16.364"/></g><defs><clipPath id="ha"><path d="M0 0h20v19H0z"/></clipPath></defs></svg><svg viewBox="0 0 83 18" id="catalog-arr-blue" xmlns="http://www.w3.org/2000/svg"><path d="M.5 17h66.064m0 0H80.5L66.564 3v14z"/></svg><svg viewBox="0 0 25 24" id="chevron-down" xmlns="http://www.w3.org/2000/svg"><path d="M6.5 9l6 6 6-6"/></svg><svg viewBox="0 0 28 28" id="fil" xmlns="http://www.w3.org/2000/svg"><path d="M6.38 28c-1.702 0-3.302-.601-4.506-1.693-2.485-2.254-2.485-5.921 0-8.175l14.3-12.97c1.688-1.53 4.433-1.53 6.12 0 1.688 1.53 1.688 4.02 0 5.55l-10.518 9.54a1.15 1.15 0 01-1.514 0 .908.908 0 010-1.372l10.519-9.54c.853-.774.853-2.032 0-2.806a2.29 2.29 0 00-1.546-.58 2.29 2.29 0 00-1.547.58l-14.3 12.97c-1.65 1.497-1.65 3.933 0 5.43.8.725 1.862 1.125 2.993 1.125 1.13 0 2.194-.4 2.993-1.125L24.01 11.66c1.186-1.076 1.839-2.506 1.839-4.027 0-1.521-.653-2.952-1.839-4.027-2.448-2.22-6.432-2.22-8.88 0L4.276 13.45a1.15 1.15 0 01-1.514 0 .908.908 0 010-1.373l10.855-9.845c3.282-2.977 8.624-2.977 11.907 0 1.59 1.442 2.466 3.36 2.466 5.4 0 2.04-.876 3.957-2.466 5.4L10.888 26.306C9.684 27.399 8.083 28 6.38 28z"/></svg><svg viewBox="0 0 15 16" id="filter" xmlns="http://www.w3.org/2000/svg"><path d="M13.75 2.375H1.25l5 5.912v4.088l2.5 1.25V8.287l5-5.912z"/></svg><svg viewBox="0 0 24 24" id="filter-arr" xmlns="http://www.w3.org/2000/svg"><path d="M4 8l7.5 7.5L19 8"/></svg><svg viewBox="0 0 502.664 502.664" id="icon" xmlns="http://www.w3.org/2000/svg"><path d="M153.821 358.226L0 274.337v-46.463l153.821-83.414v54.574L46.636 250.523l107.185 53.431v54.272zm26.273 29.358L282.103 115.08h32.227L212.084 387.584h-31.99zm168.749-29.358v-54.272l107.164-52.999-107.164-52.59v-53.927l153.821 83.522v46.183l-153.821 84.083z"/></svg><svg viewBox="0 0 21 20" id="tel" xmlns="http://www.w3.org/2000/svg"><path d="M16.721 19.28c.969-.144 2.905-1.295 3.32-2.445.415-1.15.415-2.158.277-2.589-.139-.144-.415-.288-.969-.575-.415-.288-2.904-1.582-3.32-1.726-.414-.144-.829-.288-1.106.287-.276.576-1.244 1.726-1.521 2.014-.277.288-.553.431-1.107.144-.553-.288-2.074-.863-4.01-2.59-1.522-1.437-2.49-3.02-2.767-3.595-.277-.431 0-.719.277-1.007.138-.143.415-.575.691-.863.277-.287.415-.575.553-.862a.95.95 0 000-.863C6.901 4.466 5.933 1.877 5.518.87 5.103-.137 4.688.007 4.412.007h-.969c-.415 0-.968 0-1.383.575C1.645 1.158.4 2.308.4 4.897c0 2.59 1.798 5.034 2.075 5.322.277.431 3.458 5.61 8.437 7.766 1.107.576 2.075.863 2.767 1.151a7.442 7.442 0 003.042.144z"/><defs><linearGradient id="oa" x1="-4.064" y1="32.219" x2="27.389" y2="15.353" gradientUnits="userSpaceOnUse"><stop stop-color="#031367"/><stop offset="1" stop-color="#1494F1"/></linearGradient></defs></svg></svg>