<?xml version="1.0" encoding="utf-8"?><svg viewBox="0 0 502.66 502.66" xmlns="http://www.w3.org/2000/svg" xmlns:xlink="http://www.w3.org/1999/xlink"><style>:root>svg{display:none}:root>svg:target{display:block}</style><svg viewBox="0 0 100 100" id="about-1" xmlns="http://www.w3.org/2000/svg"><g clip-path="url(#aa)" stroke-width="8" stroke-miterlimit="10" stroke-linecap="round" stroke-linejoin="round"><path d="M27.344 49.219H11.719a7.813 7.813 0 00-7.813 7.812v31.25a7.813 7.813 0 007.813 7.813H88.28a7.813 7.813 0 007.813-7.813v-31.25a7.813 7.813 0 00-7.813-7.812l-8.59-12.496a7.813 7.813 0 00-14.067 4.683v7.813l-8.589-12.496a7.813 7.813 0 00-14.067 4.683v7.813"/><path d="M11.719 49.219V19.53a7.813 7.813 0 0115.625 0v29.69M80.469 64.844H65.625m-15.625 0H35.156M50 80.469H35.156m45.313 0H65.625M19.531 80.469v15.625m22.657-84.375c11.718 0 11.718-7.813 23.437-7.813"/></g><defs><clipPath id="aa"><path d="M0 0h100v100H0z"/></clipPath></defs></svg><svg viewBox="0 0 100 100" id="about-2" xmlns="http://www.w3.org/2000/svg"><g clip-path="url(#ba)" stroke-width="8" stroke-miterlimit="10" stroke-linecap="round" stroke-linejoin="round"><path d="M46.875 74.219c15.102 0 27.344-12.242 27.344-27.344S61.977 19.531 46.875 19.531 19.531 31.773 19.531 46.875s12.242 27.344 27.344 27.344z"/><path d="M46.875 89.844c-23.731 0-42.969-19.238-42.969-42.969S23.144 3.906 46.875 3.906s42.969 19.238 42.969 42.969M72.656 89.844H46.875m41.406-6.25l7.813 6.25-7.813 6.25"/><path d="M46.875 35.156v11.719h11.719"/></g><defs><clipPath id="ba"><path d="M0 0h100v100H0z"/></clipPath></defs></svg><svg viewBox="0 0 100 100" id="about-3" xmlns="http://www.w3.org/2000/svg"><g stroke-width="8" stroke-miterlimit="10" stroke-linecap="round" stroke-linejoin="round"><path d="M26.563 74.219H11.719a7.813 7.813 0 01-7.813-7.813V11.72a7.813 7.813 0 017.813-7.813H88.28a7.813 7.813 0 017.813 7.813v54.687a7.813 7.813 0 01-7.813 7.813H73.438m-7.813 21.875L50 82.03 34.375 96.094"/><path d="M18.75 27.344a7.813 7.813 0 017.813-7.813m0 39.063a7.813 7.813 0 01-7.813-7.813m62.5 0a7.813 7.813 0 01-7.812 7.813m0-39.063a7.813 7.813 0 017.812 7.813M50 82.031a7.812 7.812 0 100-15.625 7.812 7.812 0 000 15.625zM42.188 50.781h15.625M34.375 35.156h31.25"/></g></svg><svg viewBox="0 0 87 100" id="about-4" xmlns="http://www.w3.org/2000/svg"><g stroke-width="8" stroke-miterlimit="10" stroke-linecap="round" stroke-linejoin="round"><path d="M20.225 27.038H67.1M43.663 3.6v7.813m15.625 15.625V41.1c0 8.63-6.996 15.625-15.625 15.625-8.63 0-15.625-6.995-15.625-15.625V23.131c0-6.472 5.246-11.718 11.718-11.718h7.813c6.472 0 11.718 5.246 11.718 11.718v3.907zM35.85 95.788h15.625M67.1 65.871v29.917h7.812a7.813 7.813 0 007.813-7.813c0-12.944-10.493-23.437-23.438-23.437h-31.25C15.093 64.538 4.6 75.03 4.6 87.975a7.813 7.813 0 007.812 7.813h7.813V65.87"/><path d="M51.475 64.538v7.812a7.813 7.813 0 01-15.625 0v-7.812"/></g></svg><svg viewBox="0 0 100 96" id="about-5" xmlns="http://www.w3.org/2000/svg"><g stroke-width="7.996" stroke-miterlimit="10" stroke-linecap="round" stroke-linejoin="round"><path d="M72.723 90.872l7.756-7.86m14.235 7.712c.855-2.46 1.4-5.066 1.382-7.818-.088-12.938-10.646-23.354-23.583-23.267-12.937.087-23.354 10.645-23.267 23.583.019 2.752.599 5.35 1.487 7.798M41.62 51.83a7.808 7.808 0 100-15.616 7.808 7.808 0 000 15.616z"/><path d="M72.854 44.022c0-2.894-.394-5.695-1.13-8.355.83-.489 7.612-4.404 7.612-4.404L71.527 17.74l-7.644 4.413c-3.904-3.975-8.892-6.819-14.455-8.26V4.98H33.812v8.913c-5.563 1.44-10.55 4.284-14.455 8.259l-7.644-4.413-7.809 13.524 7.737 4.467c-.735 2.657-1.255 5.4-1.255 8.292 0 2.891.52 5.635 1.255 8.292l-7.737 4.467 7.809 13.524 7.644-4.413c3.904 3.975 8.892 6.819 14.455 8.26v8.912"/></g></svg><svg viewBox="0 0 24 24" id="arr-left" xmlns="http://www.w3.org/2000/svg"><path d="M22 13.5a1.5 1.5 0 000-3v3zM.94 10.94a1.5 1.5 0 000 2.12l9.545 9.547a1.5 1.5 0 102.122-2.122L4.12 12l8.486-8.485a1.5 1.5 0 10-2.122-2.122L.94 10.94zM22 10.5H2v3h20v-3z"/></svg><svg viewBox="0 0 24 24" id="arr-right" xmlns="http://www.w3.org/2000/svg"><path d="M2 10.5a1.5 1.5 0 000 3v-3zm21.06 2.56a1.5 1.5 0 000-2.12l-9.545-9.547a1.5 1.5 0 10-2.122 2.122L19.88 12l-8.486 8.485a1.5 1.5 0 102.122 2.122l9.546-9.546zM2 13.5h20v-3H2v3z"/></svg><svg viewBox="0 0 24 25" id="artix" xmlns="http://www.w3.org/2000/svg"><g clip-path="url(#ha)"><path d="M4.64 20.628a2.62 2.62 0 00-.745-.578 2.598 2.598 0 00-1.072-.294H2.66a2.595 2.595 0 00-1.469.433 2.67 2.67 0 00-.966 1.138c-.07.164-.126.335-.165.509-.08.355-.08.722 0 1.077.039.175.094.346.165.51.21.459.545.85.966 1.13a2.57 2.57 0 001.467.437c.203 0 .405-.02.603-.064.184-.044.365-.106.538-.184l.077-.043A.797.797 0 014 24.64l.116-.045.059.09a.61.61 0 00.533.304c.163 0 .32-.065.437-.179a.57.57 0 00.199-.427v-2.01a2.52 2.52 0 00-.191-.943 2.78 2.78 0 00-.512-.801zm-.68 2.298a1.383 1.383 0 01-.756.739 1.45 1.45 0 01-.552.107 1.29 1.29 0 01-.527-.114 1.56 1.56 0 01-.446-.297 1.468 1.468 0 01-.316-.442 1.31 1.31 0 01-.007-1.084 1.503 1.503 0 01.757-.753 1.35 1.35 0 011.08 0 1.481 1.481 0 01.765.754 1.36 1.36 0 01.002 1.095v-.005zm5.059-3.156a2.928 2.928 0 00-1.013.221c-.309.128-.592.31-.835.54a2.63 2.63 0 00-.558.802 2.293 2.293 0 00-.212.975v2.091a.58.58 0 00.37.564c.073.028.15.041.228.039a.627.627 0 00.449-.156.55.55 0 00.191-.4v-2.061a1.354 1.354 0 01.403-1.002 1.387 1.387 0 01.988-.402.66.66 0 00.448-.184.557.557 0 00.178-.417.674.674 0 00-.2-.435.587.587 0 00-.437-.175zm6.254 3.829a.523.523 0 00-.14-.18.631.631 0 00-.445-.164h-.011a.66.66 0 00-.448.165c-.12.113-.261.2-.416.256-.18.06-.37.089-.56.083a1.417 1.417 0 01-.567-.114 1.375 1.375 0 01-.452-.316 1.415 1.415 0 01-.346-.998v-1.348h1.4a.58.58 0 00.422-.192.604.604 0 00.02-.863.553.553 0 00-.443-.164h-1.4v-1.176a.51.51 0 00-.182-.412.729.729 0 00-.48-.164.705.705 0 00-.473.164.512.512 0 00-.183.412v3.733a2.572 2.572 0 00.822 1.94c.257.237.558.42.886.542.344.128.71.193 1.078.19a2.51 2.51 0 00.988-.193 2.8 2.8 0 00.846-.563.464.464 0 00.115-.185.634.634 0 00.033-.232.58.58 0 00-.064-.221zm8.546.355l-1.59-1.58 1.588-1.579a.593.593 0 00.165-.43.566.566 0 00-.165-.422.623.623 0 00-.433-.187h-.006a.557.557 0 00-.404.175l-1.625 1.581-1.59-1.566a.727.727 0 00-.435-.189.549.549 0 00-.433.186.74.74 0 00-.184.432.477.477 0 00.165.395l1.625 1.603-1.625 1.602a.547.547 0 00-.165.427.61.61 0 00.186.42.538.538 0 00.438.164.72.72 0 00.44-.164l1.583-1.573 1.59 1.543a.603.603 0 00.453.2.582.582 0 00.43-.163.566.566 0 00.18-.442.605.605 0 00-.188-.433zm-6.45-4.024a.678.678 0 00-.129-.086.546.546 0 00-.3-.084.546.546 0 00-.299.084.682.682 0 00-.128.087.512.512 0 00-.188.395v4.093a.547.547 0 00.2.422c.112.1.259.152.41.147h.02a.594.594 0 00.41-.147.55.55 0 00.2-.422v-4.093a.51.51 0 00-.196-.395zm.032-1.724a.55.55 0 00-.416-.18.618.618 0 00-.433.164.559.559 0 00-.193.409.597.597 0 00.165.46.676.676 0 00.458.175.554.554 0 00.413-.18.603.603 0 000-.853l.006.005z"/></g><g clip-path="url(#hb)"><path d="M12.998 6.643c-1.8 0-3.436 1.633-3.436 3.648.002.741.223 1.463.632 2.065.873-.55 1.82-.937 2.81-.937s1.937.388 2.812.937c.408-.602.63-1.324.632-2.065-.007-2.015-1.645-3.648-3.45-3.648z"/><path d="M12.997 0c-4.418 0-8 9.904-8 14.527 0 3.588 2.158-.264 5.189-2.172a3.674 3.674 0 01-.63-2.158 3.66 3.66 0 01.736-2.12c-.146.37-.221.766-.22 1.167 0 .821.308 1.61.856 2.19a2.85 2.85 0 002.07.907c.775 0 1.52-.326 2.068-.907a3.19 3.19 0 00.857-2.19c0-.401-.075-.798-.221-1.168.458.603.717 1.348.736 2.12a3.675 3.675 0 01-.63 2.16c3.032 1.905 5.19 5.76 5.19 2.171 0-4.621-3.583-14.527-8-14.527z"/></g><defs><clipPath id="ha"><path transform="translate(0 18)" d="M0 0h24v7H0z"/></clipPath><clipPath id="hb"><path transform="translate(5)" d="M0 0h16v16H0z"/></clipPath></defs></svg><svg viewBox="0 0 20 19" id="catalog" xmlns="http://www.w3.org/2000/svg"><g clip-path="url(#ia)" stroke-width="3" stroke-linecap="round" stroke-linejoin="round"><path d="M1.818 2.375h16.364M1.818 9.5h16.364M1.818 16.625h16.364"/></g><defs><clipPath id="ia"><path d="M0 0h20v19H0z"/></clipPath></defs></svg><svg viewBox="0 0 83 18" id="catalog-arr-blue" xmlns="http://www.w3.org/2000/svg"><path d="M.5 17h66.064m0 0H80.5L66.564 3v14z"/></svg><svg viewBox="0 0 25 24" id="chevron-down" xmlns="http://www.w3.org/2000/svg"><path d="M6.5 9l6 6 6-6"/></svg><svg viewBox="0 0 28 28" id="fil" xmlns="http://www.w3.org/2000/svg"><path d="M6.38 28c-1.702 0-3.302-.601-4.506-1.693-2.485-2.254-2.485-5.921 0-8.175l14.3-12.97c1.688-1.53 4.433-1.53 6.12 0 1.688 1.53 1.688 4.02 0 5.55l-10.518 9.54a1.15 1.15 0 01-1.514 0 .908.908 0 010-1.372l10.519-9.54c.853-.774.853-2.032 0-2.806a2.29 2.29 0 00-1.546-.58 2.29 2.29 0 00-1.547.58l-14.3 12.97c-1.65 1.497-1.65 3.933 0 5.43.8.725 1.862 1.125 2.993 1.125 1.13 0 2.194-.4 2.993-1.125L24.01 11.66c1.186-1.076 1.839-2.506 1.839-4.027 0-1.521-.653-2.952-1.839-4.027-2.448-2.22-6.432-2.22-8.88 0L4.276 13.45a1.15 1.15 0 01-1.514 0 .908.908 0 010-1.373l10.855-9.845c3.282-2.977 8.624-2.977 11.907 0 1.59 1.442 2.466 3.36 2.466 5.4 0 2.04-.876 3.957-2.466 5.4L10.888 26.306C9.684 27.399 8.083 28 6.38 28z"/></svg><svg viewBox="0 0 15 16" id="filter" xmlns="http://www.w3.org/2000/svg"><path d="M13.75 2.375H1.25l5 5.912v4.088l2.5 1.25V8.287l5-5.912z"/></svg><svg viewBox="0 0 24 24" id="filter-arr" xmlns="http://www.w3.org/2000/svg"><path d="M4 8l7.5 7.5L19 8"/></svg><svg viewBox="0 0 502.664 502.664" id="icon" xmlns="http://www.w3.org/2000/svg"><path d="M153.821 358.226L0 274.337v-46.463l153.821-83.414v54.574L46.636 250.523l107.185 53.431v54.272zm26.273 29.358L282.103 115.08h32.227L212.084 387.584h-31.99zm168.749-29.358v-54.272l107.164-52.999-107.164-52.59v-53.927l153.821 83.522v46.183l-153.821 84.083z"/></svg><svg viewBox="0 0 21 20" id="tel" xmlns="http://www.w3.org/2000/svg"><path d="M16.721 19.28c.969-.144 2.905-1.295 3.32-2.445.415-1.15.415-2.158.277-2.589-.139-.144-.415-.288-.969-.575-.415-.288-2.904-1.582-3.32-1.726-.414-.144-.829-.288-1.106.287-.276.576-1.244 1.726-1.521 2.014-.277.288-.553.431-1.107.144-.553-.288-2.074-.863-4.01-2.59-1.522-1.437-2.49-3.02-2.767-3.595-.277-.431 0-.719.277-1.007.138-.143.415-.575.691-.863.277-.287.415-.575.553-.862a.95.95 0 000-.863C6.901 4.466 5.933 1.877 5.518.87 5.103-.137 4.688.007 4.412.007h-.969c-.415 0-.968 0-1.383.575C1.645 1.158.4 2.308.4 4.897c0 2.59 1.798 5.034 2.075 5.322.277.431 3.458 5.61 8.437 7.766 1.107.576 2.075.863 2.767 1.151a7.442 7.442 0 003.042.144z"/><defs><linearGradient id="pa" x1="-4.064" y1="32.219" x2="27.389" y2="15.353" gradientUnits="userSpaceOnUse"><stop stop-color="#031367"/><stop offset="1" stop-color="#1494F1"/></linearGradient></defs></svg></svg>